<?xml version="1.0" standalone="no"?><svg xmlns="http://www.w3.org/2000/svg" viewBox="0 0 1440 320"><path fill="#1D5686d1" fill-opacity="1" d="M0,96L34.3,80C68.6,64,137,32,206,58.7C274.3,85,343,171,411,170.7C480,171,549,85,617,74.7C685.7,64,754,128,823,170.7C891.4,213,960,235,1029,245.3C1097.1,256,1166,256,1234,266.7C1302.9,277,1371,299,1406,309.3L1440,320L1440,320L1405.7,320C1371.4,320,1303,320,1234,320C1165.7,320,1097,320,1029,320C960,320,891,320,823,320C754.3,320,686,320,617,320C548.6,320,480,320,411,320C342.9,320,274,320,206,320C137.1,320,69,320,34,320L0,320Z"></path></svg>